<svg width="64" height="64" viewBox="0 0 64 64" fill="none" xmlns="http://www.w3.org/2000/svg">
<rect width="50" height="50" transform="translate(7 7)" fill="white"/>
<path d="M27.7184 27.4375L26.6577 26.3768L26.6577 26.3768L27.7184 27.4375ZM25.9183 16.9357L24.8576 15.875C24.5133 16.2194 24.3576 16.7094 24.4399 17.1893C24.5222 17.6692 24.8323 18.0793 25.2717 18.2892L25.9183 16.9357ZM32.3315 10.5225L33.3922 9.46184C33.1109 9.18054 32.7293 9.0225 32.3315 9.0225C31.9337 9.0225 31.5521 9.18054 31.2708 9.46184L32.3315 10.5225ZM39.6579 17.8489L38.5972 18.9095C39.0156 19.3279 39.6408 19.4612 40.1934 19.25C40.7461 19.0388 41.1229 18.5224 41.1556 17.9316L39.6579 17.8489ZM46.5343 24.7253L46.4515 23.2275C45.8607 23.2602 45.3444 23.637 45.1331 24.1897C44.9219 24.7424 45.0552 25.3676 45.4736 25.7859L46.5343 24.7253ZM53.8602 32.0512L54.9209 33.1119C55.5067 32.5261 55.5067 31.5764 54.9209 30.9906L53.8602 32.0512ZM47.6136 38.2979L46.2283 38.8733C46.4204 39.3357 46.8305 39.6718 47.3217 39.7692C47.8128 39.8667 48.3202 39.7126 48.6742 39.3586L47.6136 38.2979ZM39.0821 46.8293L40.1428 47.89C40.4968 47.536 40.6509 47.0286 40.5534 46.5375C40.456 46.0463 40.1199 45.6362 39.6575 45.4441L39.0821 46.8293ZM32.3315 53.58L31.2708 54.6406C31.8566 55.2264 32.8064 55.2264 33.3922 54.6406L32.3315 53.58ZM24.7543 46.0028L25.815 44.9421C25.3804 44.5075 24.7246 44.382 24.1602 44.6254C23.5959 44.8688 23.2371 45.4319 23.2549 46.0463L24.7543 46.0028ZM13.6196 50.8066L14.6802 49.7459L14.6802 49.7459L13.6196 50.8066ZM18.4234 39.6719L18.3799 41.1712C18.9942 41.1891 19.5573 40.8303 19.8008 40.2659C20.0442 39.7016 19.9187 39.0458 19.4841 38.6112L18.4234 39.6719ZM10.8028 32.0512L9.74211 30.9906C9.46081 31.2719 9.30277 31.6534 9.30277 32.0512C9.30277 32.4491 9.46081 32.8306 9.74211 33.1119L10.8028 32.0512ZM17.2166 25.6374L18.5701 24.9908C18.3602 24.5514 17.9501 24.2413 17.4702 24.159C16.9903 24.0767 16.5002 24.2324 16.1559 24.5767L17.2166 25.6374ZM18.4918 27.4375L17.4311 28.4981L17.4311 28.4981L18.4918 27.4375ZM26.6577 19.2715C28.6198 21.2336 28.6198 24.4147 26.6577 26.3768L28.779 28.4981C31.9127 25.3645 31.9127 20.2839 28.779 17.1502L26.6577 19.2715ZM25.2717 18.2892C25.7711 18.5278 26.2406 18.8545 26.6577 19.2715L28.779 17.1502C28.1178 16.489 27.3673 15.9656 26.5649 15.5822L25.2717 18.2892ZM31.2708 9.46184L24.8576 15.875L26.979 17.9964L33.3922 11.5832L31.2708 9.46184ZM40.7185 16.7882L33.3922 9.46184L31.2708 11.5832L38.5972 18.9095L40.7185 16.7882ZM40.4981 12.5371C39.0453 13.9899 38.2652 15.8648 38.1602 17.7661L41.1556 17.9316C41.2215 16.739 41.7087 15.5692 42.6194 14.6584L40.4981 12.5371ZM51.846 12.5371C48.7124 9.40346 43.6317 9.40346 40.4981 12.5371L42.6194 14.6584C44.5815 12.6964 47.7626 12.6964 49.7247 14.6584L51.846 12.5371ZM51.846 23.885C54.9797 20.7514 54.9797 15.6707 51.846 12.5371L49.7247 14.6584C51.6868 16.6205 51.6868 19.8016 49.7247 21.7637L51.846 23.885ZM46.617 26.223C48.5183 26.1179 50.3932 25.3378 51.846 23.885L49.7247 21.7637C48.814 22.6744 47.6441 23.1616 46.4515 23.2275L46.617 26.223ZM54.9209 30.9906L47.5949 23.6646L45.4736 25.7859L52.7996 33.1119L54.9209 30.9906ZM48.6742 39.3586L54.9209 33.1119L52.7996 30.9906L46.5529 37.2372L48.6742 39.3586ZM45.1406 37.2511C45.6225 37.733 45.984 38.2853 46.2283 38.8733L48.9988 37.7225C48.6064 36.7779 48.0264 35.8943 47.2619 35.1297L45.1406 37.2511ZM38.0353 37.2511C39.9973 35.289 43.1785 35.289 45.1406 37.2511L47.2619 35.1297C44.1282 31.9961 39.0476 31.9961 35.914 35.1297L38.0353 37.2511ZM38.0353 44.3563C36.0732 42.3943 36.0732 39.2131 38.0353 37.2511L35.914 35.1297C32.7803 38.2634 32.7803 43.344 35.914 46.4777L38.0353 44.3563ZM39.6575 45.4441C39.0695 45.1998 38.5172 44.8382 38.0353 44.3563L35.914 46.4777C36.6785 47.2422 37.5621 47.8222 38.5067 48.2146L39.6575 45.4441ZM33.3922 54.6406L40.1428 47.89L38.0215 45.7687L31.2708 52.5193L33.3922 54.6406ZM23.6936 47.0634L31.2708 54.6406L33.3922 52.5193L25.815 44.9421L23.6936 47.0634ZM23.9068 51.8673C25.5332 50.2409 26.3155 48.0874 26.2537 45.9592L23.2549 46.0463C23.2938 47.3834 22.804 48.7275 21.7855 49.7459L23.9068 51.8673ZM12.5589 51.8673C15.6926 55.0009 20.7732 55.0009 23.9068 51.8673L21.7855 49.7459C19.8235 51.708 16.6423 51.708 14.6802 49.7459L12.5589 51.8673ZM12.5589 40.5193C9.42528 43.653 9.42528 48.7336 12.5589 51.8673L14.6802 49.7459C12.7182 47.7839 12.7182 44.6027 14.6802 42.6407L12.5589 40.5193ZM18.4669 38.1725C16.3388 38.1107 14.1853 38.893 12.5589 40.5193L14.6802 42.6407C15.6987 41.6222 17.0428 41.1324 18.3799 41.1712L18.4669 38.1725ZM9.74211 33.1119L17.3628 40.7325L19.4841 38.6112L11.8634 30.9906L9.74211 33.1119ZM16.1559 24.5767L9.74211 30.9906L11.8634 33.1119L18.2773 26.6981L16.1559 24.5767ZM19.5524 26.3768C19.1353 25.9597 18.8087 25.4902 18.5701 24.9908L15.8631 26.284C16.2465 27.0864 16.7699 27.8369 17.4311 28.4981L19.5524 26.3768ZM26.6577 26.3768C24.6956 28.3389 21.5145 28.3389 19.5524 26.3768L17.4311 28.4981C20.5648 31.6318 25.6454 31.6318 28.779 28.4981L26.6577 26.3768Z" fill="#A7CE46"/>
</svg>
